<svg class="svg-icon" style="width: 1em; height: 1em;vertical-align: middle;fill: currentColor;overflow: hidden;" viewBox="0 0 1024 1024" version="1.1" xmlns="http://www.w3.org/2000/svg"><path d="M512 64c60.5 0 119.2 11.8 174.4 35.2 53.3 22.6 101.3 54.9 142.4 96 41.2 41.2 73.5 89.1 96 142.4C948.2 392.8 960 451.5 960 512s-11.8 119.2-35.2 174.4c-22.6 53.3-54.9 101.3-96 142.4-41.2 41.2-89.1 73.5-142.4 96C631.2 948.2 572.5 960 512 960s-119.2-11.8-174.4-35.2c-53.3-22.6-101.3-54.9-142.4-96-41.2-41.2-73.5-89.1-96-142.4C75.8 631.2 64 572.5 64 512s11.8-119.2 35.2-174.4c22.6-53.3 54.9-101.3 96-142.4s89.1-73.5 142.4-96C392.8 75.8 451.5 64 512 64m0-64C229.2 0 0 229.2 0 512s229.2 512 512 512 512-229.2 512-512S794.8 0 512 0z" fill="#fff" /><path d="M415.2 698L236.9 519.7c-12.4-12.4-12.4-32.7 0-45.1l0.1-0.1c12.4-12.4 32.7-12.4 45.1 0l178.3 178.3c12.4 12.4 12.4 32.7 0 45.1l-0.1 0.1c-12.4 12.4-32.7 12.4-45.1 0z" fill="#fff" /><path d="M787.1 371.2L460.3 698c-12.4 12.4-32.7 12.4-45.1 0l-0.1-0.1c-12.4-12.4-12.4-32.7 0-45.1L741.9 326c12.4-12.4 32.7-12.4 45.1 0l0.1 0.1c12.4 12.4 12.4 32.7 0 45.1z" fill="#fff" /></svg>